<?xml version="1.0" encoding="UTF-8"?>
<svg width="800" height="400" viewBox="0 0 800 400" fill="none" xmlns="http://www.w3.org/2000/svg">
  <rect width="800" height="400" fill="#1E293B"/>
  <path d="M400 150C413.807 150 425 138.807 425 125C425 111.193 413.807 100 400 100C386.193 100 375 111.193 375 125C375 138.807 386.193 150 400 150Z" fill="#64748B"/>
  <path d="M450 200H350C341.716 200 335 206.716 335 215V265C335 273.284 341.716 280 350 280H450C458.284 280 465 273.284 465 265V215C465 206.716 458.284 200 450 200Z" fill="#64748B"/>
  <text x="400" y="350" text-anchor="middle" font-family="system-ui" font-size="24" fill="#94A3B8">Project Preview</text>
</svg> 