<?xml version="1.0" encoding="UTF-8"?>
<svg width="1200" height="630" viewBox="0 0 1200 630" fill="none" xmlns="http://www.w3.org/2000/svg">
  <rect width="1200" height="630" fill="#1E1E2E"/>
  <rect x="100" y="100" width="1000" height="430" rx="20" fill="#2A2A3C"/>
  <circle cx="600" cy="315" r="150" fill="#6D28D9" fill-opacity="0.2"/>
  <path d="M600 215C544.772 215 500 259.772 500 315C500 370.228 544.772 415 600 415C655.228 415 700 370.228 700 315C700 259.772 655.228 215 600 215ZM600 385C561.34 385 530 353.66 530 315C530 276.34 561.34 245 600 245C638.66 245 670 276.34 670 315C670 353.66 638.66 385 600 385Z" fill="#6D28D9"/>
  <text x="600" y="500" text-anchor="middle" font-family="system-ui" font-size="48" fill="#E2E8F0">SOC Automation Project</text>
</svg> 