<?xml version="1.0" encoding="UTF-8"?>
<svg width="1200" height="630" viewBox="0 0 1200 630" fill="none" xmlns="http://www.w3.org/2000/svg">
  <rect width="1200" height="630" fill="#1E1E2E"/>
  <rect x="100" y="100" width="1000" height="430" rx="20" fill="#2A2A3C"/>
  <rect x="200" y="200" width="150" height="100" rx="10" fill="#6D28D9" fill-opacity="0.2"/>
  <rect x="525" y="200" width="150" height="100" rx="10" fill="#6D28D9" fill-opacity="0.2"/>
  <rect x="850" y="200" width="150" height="100" rx="10" fill="#6D28D9" fill-opacity="0.2"/>
  <rect x="200" y="350" width="150" height="100" rx="10" fill="#6D28D9" fill-opacity="0.2"/>
  <rect x="525" y="350" width="150" height="100" rx="10" fill="#6D28D9" fill-opacity="0.2"/>
  <rect x="850" y="350" width="150" height="100" rx="10" fill="#6D28D9" fill-opacity="0.2"/>
  <path d="M350 250L525 250M675 250L850 250M350 400L525 400M675 400L850 400M275 300L275 350M600 300L600 350M925 300L925 350" stroke="#6D28D9" stroke-width="4"/>
  <text x="600" y="500" text-anchor="middle" font-family="system-ui" font-size="32" fill="#E2E8F0">Complete SOC Environment</text>
</svg> 